<svg width="32" height="32" viewBox="0 0 32 32" fill="none" xmlns="http://www.w3.org/2000/svg">
<path d="M21.2003 30V24.4C21.3951 22.6462 20.8922 20.8862 19.8003 19.5C24.0003 19.5 28.2003 16.7 28.2003 11.8C28.3123 10.05 27.8223 8.328 26.8003 6.9C27.1923 5.29 27.1923 3.61 26.8003 2C26.8003 2 25.4003 2 22.6003 4.1C18.9043 3.4 15.0963 3.4 11.4003 4.1C8.6003 2 7.2003 2 7.2003 2C6.7803 3.61 6.7803 5.29 7.2003 6.9C6.18092 8.32224 5.68616 10.0539 5.8003 11.8C5.8003 16.7 10.0003 19.5 14.2003 19.5C13.6543 20.186 13.2483 20.97 13.0103 21.81C12.7723 22.65 12.7023 23.532 12.8003 24.4V30" stroke="#025A4E" stroke-width="2.66667" stroke-linecap="round" stroke-linejoin="round"/>
<path d="M12.8 24.4001C6.486 27.2001 5.8 21.6001 3 21.6001" stroke="#025A4E" stroke-width="2.66667" stroke-linecap="round" stroke-linejoin="round"/>
</svg>
