<svg width="650" height="650" viewBox="0 0 650 650" fill="none" xmlns="http://www.w3.org/2000/svg">
<g clip-path="url(#clip0_39_133)">
<path d="M616.707 33.2925H12V638H616.707V33.2925Z" fill="#0C0C0C"/>
<path d="M33.2925 12H638V616.707H33.2925V12Z" fill="white"/>
<mask id="mask0_39_133" style="mask-type:luminance" maskUnits="userSpaceOnUse" x="29" y="12" width="609" height="609">
<path d="M638 12H29.0339V620.966H638V12Z" fill="white"/>
<path d="M33.2925 12H638V616.707H33.2925V12Z" fill="black"/>
</mask>
<g mask="url(#mask0_39_133)">
<path d="M33.2924 616.707H29.0339V620.966H33.2924V616.707ZM638 612.449H33.2924V620.966H638V612.449ZM37.5509 616.707V12H29.0339V616.707H37.5509Z" fill="#0C0C0C"/>
</g>
<path d="M436.43 12H638V213.576H436.43V12Z" fill="white"/>
<mask id="mask1_39_133" style="mask-type:luminance" maskUnits="userSpaceOnUse" x="436" y="12" width="202" height="202">
<path d="M436.43 12H638V213.576H436.43V12Z" fill="white"/>
</mask>
<g mask="url(#mask1_39_133)">
<path d="M638 12.0002H642.259V7.7417H638V12.0002ZM436.43 16.2587H638V7.7417H436.43V16.2587ZM633.742 12.0002V213.576H642.259V12.0002H633.742Z" fill="#0C0C0C"/>
</g>
<path d="M33.2925 12H234.862V213.576H33.2925V12Z" fill="white"/>
<mask id="mask2_39_133" style="mask-type:luminance" maskUnits="userSpaceOnUse" x="33" y="12" width="202" height="202">
<path d="M33.2925 12H234.862V213.576H33.2925V12Z" fill="white"/>
</mask>
<g mask="url(#mask2_39_133)">
<path d="M234.862 12.0002H239.121V7.7417H234.862V12.0002ZM33.2925 16.2587H234.862V7.7417H33.2925V16.2587ZM230.604 12.0002V213.576H239.121V12.0002H230.604Z" fill="#0C0C0C"/>
</g>
<path d="M234.862 213.576H436.43V415.153H234.862V213.576Z" fill="white"/>
<mask id="mask3_39_133" style="mask-type:luminance" maskUnits="userSpaceOnUse" x="234" y="213" width="203" height="203">
<path d="M234.862 213.576H436.43V415.153H234.862V213.576Z" fill="white"/>
</mask>
<g mask="url(#mask3_39_133)">
<path d="M436.43 213.576H440.689V209.318H436.43V213.576ZM234.862 217.835H436.43V209.318H234.862V217.835ZM432.172 213.576V415.153H440.689V213.576H432.172Z" fill="#0C0C0C"/>
</g>
<path d="M436.43 415.152H638V616.729H436.43V415.152Z" fill="white"/>
<mask id="mask4_39_133" style="mask-type:luminance" maskUnits="userSpaceOnUse" x="436" y="415" width="202" height="202">
<path d="M436.43 415.152H638V616.729H436.43V415.152Z" fill="white"/>
</mask>
<g mask="url(#mask4_39_133)">
<path d="M638 415.153H642.259V410.894H638V415.153ZM436.43 419.411H638V410.894H436.43V419.411ZM633.742 415.153V616.729H642.259V415.153H633.742Z" fill="#0C0C0C"/>
</g>
<path d="M33.2925 414.429H234.862V616.005H33.2925V414.429Z" fill="white"/>
<mask id="mask5_39_133" style="mask-type:luminance" maskUnits="userSpaceOnUse" x="33" y="414" width="202" height="203">
<path d="M33.2925 414.429H234.862V616.005H33.2925V414.429Z" fill="white"/>
</mask>
<g mask="url(#mask5_39_133)">
<path d="M234.862 414.429H239.121V410.17H234.862V414.429ZM33.2925 418.687H234.862V410.17H33.2925V418.687ZM230.604 414.429V616.005H239.121V414.429H230.604Z" fill="#0C0C0C"/>
</g>
<path d="M235.572 12H437.141V213.576H235.572V12Z" fill="white"/>
<mask id="mask6_39_133" style="mask-type:luminance" maskUnits="userSpaceOnUse" x="235" y="12" width="203" height="202">
<path d="M235.572 12H437.141V213.576H235.572V12Z" fill="white"/>
</mask>
<g mask="url(#mask6_39_133)">
<path d="M437.141 12.0002H441.4V7.7417H437.141V12.0002ZM235.572 16.2587H437.141V7.7417H235.572V16.2587ZM432.883 12.0002V213.576H441.4V12.0002H432.883Z" fill="#0C0C0C"/>
</g>
<path d="M306.901 79.0714C304.218 79.0714 302.11 76.9634 302.11 74.2806C302.11 71.5977 304.218 69.4897 306.901 69.4897C309.584 69.4897 311.692 71.5977 311.692 74.2806C311.692 76.9634 309.584 79.0714 306.901 79.0714ZM297.32 79.0714C294.637 79.0714 292.529 76.9634 292.529 74.2806C292.529 71.5977 294.637 69.4897 297.32 69.4897C300.002 69.4897 302.11 71.5977 302.11 74.2806C302.11 76.9634 300.002 79.0714 297.32 79.0714ZM364.391 79.0714C361.708 79.0714 359.6 76.9634 359.6 74.2806C359.6 71.5977 361.708 69.4897 364.391 69.4897C367.074 69.4897 369.182 71.5977 369.182 74.2806C369.182 76.9634 367.074 79.0714 364.391 79.0714ZM373.973 79.0714C371.29 79.0714 369.182 76.9634 369.182 74.2806C369.182 71.5977 371.29 69.4897 373.973 69.4897C376.656 69.4897 378.764 71.5977 378.764 74.2806C378.764 76.9634 376.656 79.0714 373.973 79.0714ZM373.973 88.653C371.29 88.653 369.182 86.5451 369.182 83.8622C369.182 81.1793 371.29 79.0714 373.973 79.0714C376.656 79.0714 378.764 81.1793 378.764 83.8622C378.764 86.5451 376.656 88.653 373.973 88.653ZM354.809 88.653C352.127 88.653 350.019 86.5451 350.019 83.8622C350.019 81.1793 352.127 79.0714 354.809 79.0714C357.492 79.0714 359.6 81.1793 359.6 83.8622C359.6 86.5451 357.492 88.653 354.809 88.653ZM316.483 88.653C313.8 88.653 311.692 86.5451 311.692 83.8622C311.692 81.1793 313.8 79.0714 316.483 79.0714C319.166 79.0714 321.274 81.1793 321.274 83.8622C321.274 86.5451 319.166 88.653 316.483 88.653ZM306.901 88.653C304.218 88.653 302.11 86.5451 302.11 83.8622C302.11 81.1793 304.218 79.0714 306.901 79.0714C309.584 79.0714 311.692 81.1793 311.692 83.8622C311.692 86.5451 309.584 88.653 306.901 88.653ZM297.32 88.653C294.637 88.653 292.529 86.5451 292.529 83.8622C292.529 81.1793 294.637 79.0714 297.32 79.0714C300.002 79.0714 302.11 81.1793 302.11 83.8622C302.11 86.5451 300.002 88.653 297.32 88.653ZM364.391 88.653C361.708 88.653 359.6 86.5451 359.6 83.8622C359.6 81.1793 361.708 79.0714 364.391 79.0714C367.074 79.0714 369.182 81.1793 369.182 83.8622C369.182 86.5451 367.074 88.653 364.391 88.653ZM316.483 98.2346C313.8 98.2346 311.692 96.1267 311.692 93.4438C311.692 90.761 313.8 88.653 316.483 88.653C319.166 88.653 321.274 90.761 321.274 93.4438C321.274 96.1267 319.166 98.2346 316.483 98.2346ZM354.809 98.2346C352.127 98.2346 350.019 96.1267 350.019 93.4438C350.019 90.761 352.127 88.653 354.809 88.653C357.492 88.653 359.6 90.761 359.6 93.4438C359.6 96.1267 357.492 98.2346 354.809 98.2346ZM306.901 98.2346C304.218 98.2346 302.11 96.1267 302.11 93.4438C302.11 90.761 304.218 88.653 306.901 88.653C309.584 88.653 311.692 90.761 311.692 93.4438C311.692 96.1267 309.584 98.2346 306.901 98.2346ZM364.391 98.2346C361.708 98.2346 359.6 96.1267 359.6 93.4438C359.6 90.761 361.708 88.653 364.391 88.653C367.074 88.653 369.182 90.761 369.182 93.4438C369.182 96.1267 367.074 98.2346 364.391 98.2346ZM345.228 107.816C342.545 107.816 340.437 105.708 340.437 103.025C340.437 100.343 342.545 98.2346 345.228 98.2346C347.911 98.2346 350.019 100.343 350.019 103.025C350.019 105.708 347.911 107.816 345.228 107.816ZM326.065 107.816C323.382 107.816 321.274 105.708 321.274 103.025C321.274 100.343 323.382 98.2346 326.065 98.2346C328.747 98.2346 330.855 100.343 330.855 103.025C330.855 105.708 328.747 107.816 326.065 107.816ZM316.483 107.816C313.8 107.816 311.692 105.708 311.692 103.025C311.692 100.343 313.8 98.2346 316.483 98.2346C319.166 98.2346 321.274 100.343 321.274 103.025C321.274 105.708 319.166 107.816 316.483 107.816ZM354.809 107.816C352.127 107.816 350.019 105.708 350.019 103.025C350.019 100.343 352.127 98.2346 354.809 98.2346C357.492 98.2346 359.6 100.343 359.6 103.025C359.6 105.708 357.492 107.816 354.809 107.816ZM306.901 107.816C304.218 107.816 302.11 105.708 302.11 103.025C302.11 100.343 304.218 98.2346 306.901 98.2346C309.584 98.2346 311.692 100.343 311.692 103.025C311.692 105.708 309.584 107.816 306.901 107.816ZM364.391 107.816C361.708 107.816 359.6 105.708 359.6 103.025C359.6 100.343 361.708 98.2346 364.391 98.2346C367.074 98.2346 369.182 100.343 369.182 103.025C369.182 105.708 367.074 107.816 364.391 107.816ZM335.646 117.398C332.963 117.398 330.855 115.29 330.855 112.607C330.855 109.924 332.963 107.816 335.646 107.816C338.329 107.816 340.437 109.924 340.437 112.607C340.437 115.29 338.329 117.398 335.646 117.398ZM326.065 117.398C323.382 117.398 321.274 115.29 321.274 112.607C321.274 109.924 323.382 107.816 326.065 107.816C328.747 107.816 330.855 109.924 330.855 112.607C330.855 115.29 328.747 117.398 326.065 117.398ZM345.228 117.398C342.545 117.398 340.437 115.29 340.437 112.607C340.437 109.924 342.545 107.816 345.228 107.816C347.911 107.816 350.019 109.924 350.019 112.607C350.019 115.29 347.911 117.398 345.228 117.398ZM354.809 117.398C352.127 117.398 350.019 115.29 350.019 112.607C350.019 109.924 352.127 107.816 354.809 107.816C357.492 107.816 359.6 109.924 359.6 112.607C359.6 115.29 357.492 117.398 354.809 117.398ZM316.483 117.398C313.8 117.398 311.692 115.29 311.692 112.607C311.692 109.924 313.8 107.816 316.483 107.816C319.166 107.816 321.274 109.924 321.274 112.607C321.274 115.29 319.166 117.398 316.483 117.398ZM335.646 126.98C332.963 126.98 330.855 124.872 330.855 122.189C330.855 119.506 332.963 117.398 335.646 117.398C338.329 117.398 340.437 119.506 340.437 122.189C340.437 124.872 338.329 126.98 335.646 126.98ZM354.809 126.98C352.127 126.98 350.019 124.872 350.019 122.189C350.019 119.506 352.127 117.398 354.809 117.398C357.492 117.398 359.6 119.506 359.6 122.189C359.6 124.872 357.492 126.98 354.809 126.98ZM316.483 126.98C313.8 126.98 311.692 124.872 311.692 122.189C311.692 119.506 313.8 117.398 316.483 117.398C319.166 117.398 321.274 119.506 321.274 122.189C321.274 124.872 319.166 126.98 316.483 126.98ZM345.228 126.98C342.545 126.98 340.437 124.872 340.437 122.189C340.437 119.506 342.545 117.398 345.228 117.398C347.911 117.398 350.019 119.506 350.019 122.189C350.019 124.872 347.911 126.98 345.228 126.98ZM326.065 126.98C323.382 126.98 321.274 124.872 321.274 122.189C321.274 119.506 323.382 117.398 326.065 117.398C328.747 117.398 330.855 119.506 330.855 122.189C330.855 124.872 328.747 126.98 326.065 126.98ZM364.391 136.561C361.708 136.561 359.6 134.453 359.6 131.77C359.6 129.088 361.708 126.98 364.391 126.98C367.074 126.98 369.182 129.088 369.182 131.77C369.182 134.453 367.074 136.561 364.391 136.561ZM306.901 136.561C304.218 136.561 302.11 134.453 302.11 131.77C302.11 129.088 304.218 126.98 306.901 126.98C309.584 126.98 311.692 129.088 311.692 131.77C311.692 134.453 309.584 136.561 306.901 136.561ZM354.809 136.561C352.127 136.561 350.019 134.453 350.019 131.77C350.019 129.088 352.127 126.98 354.809 126.98C357.492 126.98 359.6 129.088 359.6 131.77C359.6 134.453 357.492 136.561 354.809 136.561ZM316.483 136.561C313.8 136.561 311.692 134.453 311.692 131.77C311.692 129.088 313.8 126.98 316.483 126.98C319.166 126.98 321.274 129.088 321.274 131.77C321.274 134.453 319.166 136.561 316.483 136.561ZM326.065 136.561C323.382 136.561 321.274 134.453 321.274 131.77C321.274 129.088 323.382 126.98 326.065 126.98C328.747 126.98 330.855 129.088 330.855 131.77C330.855 134.453 328.747 136.561 326.065 136.561ZM345.228 136.561C342.545 136.561 340.437 134.453 340.437 131.77C340.437 129.088 342.545 126.98 345.228 126.98C347.911 126.98 350.019 129.088 350.019 131.77C350.019 134.453 347.911 136.561 345.228 136.561ZM364.391 146.143C361.708 146.143 359.6 144.035 359.6 141.352C359.6 138.669 361.708 136.561 364.391 136.561C367.074 136.561 369.182 138.669 369.182 141.352C369.182 144.035 367.074 146.143 364.391 146.143ZM306.901 146.143C304.218 146.143 302.11 144.035 302.11 141.352C302.11 138.669 304.218 136.561 306.901 136.561C309.584 136.561 311.692 138.669 311.692 141.352C311.692 144.035 309.584 146.143 306.901 146.143ZM354.809 146.143C352.127 146.143 350.019 144.035 350.019 141.352C350.019 138.669 352.127 136.561 354.809 136.561C357.492 136.561 359.6 138.669 359.6 141.352C359.6 144.035 357.492 146.143 354.809 146.143ZM316.483 146.143C313.8 146.143 311.692 144.035 311.692 141.352C311.692 138.669 313.8 136.561 316.483 136.561C319.166 136.561 321.274 138.669 321.274 141.352C321.274 144.035 319.166 146.143 316.483 146.143ZM373.973 155.724C371.29 155.724 369.182 153.616 369.182 150.934C369.182 148.251 371.29 146.143 373.973 146.143C376.656 146.143 378.764 148.251 378.764 150.934C378.764 153.616 376.656 155.724 373.973 155.724ZM297.32 155.724C294.637 155.724 292.529 153.616 292.529 150.934C292.529 148.251 294.637 146.143 297.32 146.143C300.002 146.143 302.11 148.251 302.11 150.934C302.11 153.616 300.002 155.724 297.32 155.724ZM364.391 155.724C361.708 155.724 359.6 153.616 359.6 150.934C359.6 148.251 361.708 146.143 364.391 146.143C367.074 146.143 369.182 148.251 369.182 150.934C369.182 153.616 367.074 155.724 364.391 155.724ZM316.483 155.724C313.8 155.724 311.692 153.616 311.692 150.934C311.692 148.251 313.8 146.143 316.483 146.143C319.166 146.143 321.274 148.251 321.274 150.934C321.274 153.616 319.166 155.724 316.483 155.724ZM354.809 155.724C352.127 155.724 350.019 153.616 350.019 150.934C350.019 148.251 352.127 146.143 354.809 146.143C357.492 146.143 359.6 148.251 359.6 150.934C359.6 153.616 357.492 155.724 354.809 155.724ZM306.901 155.724C304.218 155.724 302.11 153.616 302.11 150.934C302.11 148.251 304.218 146.143 306.901 146.143C309.584 146.143 311.692 148.251 311.692 150.934C311.692 153.616 309.584 155.724 306.901 155.724ZM373.973 165.306C371.29 165.306 369.182 163.198 369.182 160.515C369.182 157.832 371.29 155.724 373.973 155.724C376.656 155.724 378.764 157.832 378.764 160.515C378.764 163.198 376.656 165.306 373.973 165.306ZM297.32 165.306C294.637 165.306 292.529 163.198 292.529 160.515C292.529 157.832 294.637 155.724 297.32 155.724C300.002 155.724 302.11 157.832 302.11 160.515C302.11 163.198 300.002 165.306 297.32 165.306ZM364.391 165.306C361.708 165.306 359.6 163.198 359.6 160.515C359.6 157.832 361.708 155.724 364.391 155.724C367.074 155.724 369.182 157.832 369.182 160.515C369.182 163.198 367.074 165.306 364.391 165.306ZM306.901 165.306C304.218 165.306 302.11 163.198 302.11 160.515C302.11 157.832 304.218 155.724 306.901 155.724C309.584 155.724 311.692 157.832 311.692 160.515C311.692 163.198 309.584 165.306 306.901 165.306Z" fill="#0C0C0C"/>
<path d="M33.2925 214.279H234.862V415.855H33.2925V214.279Z" fill="white"/>
<mask id="mask7_39_133" style="mask-type:luminance" maskUnits="userSpaceOnUse" x="33" y="214" width="202" height="202">
<path d="M33.2925 214.279H234.862V415.855H33.2925V214.279Z" fill="white"/>
</mask>
<g mask="url(#mask7_39_133)">
<path d="M234.862 214.279H239.121V210.021H234.862V214.279ZM33.2925 218.538H234.862V210.021H33.2925V218.538ZM230.604 214.279V415.855H239.121V214.279H230.604Z" fill="#0C0C0C"/>
</g>
<path d="M104.622 281.35C101.94 281.35 99.8316 279.242 99.8316 276.559C99.8316 273.877 101.94 271.769 104.622 271.769C107.305 271.769 109.413 273.877 109.413 276.559C109.413 279.242 107.305 281.35 104.622 281.35ZM95.0408 281.35C92.358 281.35 90.25 279.242 90.25 276.559C90.25 273.877 92.358 271.769 95.0408 271.769C97.7237 271.769 99.8316 273.877 99.8316 276.559C99.8316 279.242 97.7237 281.35 95.0408 281.35ZM162.112 281.35C159.429 281.35 157.321 279.242 157.321 276.559C157.321 273.877 159.429 271.769 162.112 271.769C164.795 271.769 166.903 273.877 166.903 276.559C166.903 279.242 164.795 281.35 162.112 281.35ZM171.694 281.35C169.011 281.35 166.903 279.242 166.903 276.559C166.903 273.877 169.011 271.769 171.694 271.769C174.377 271.769 176.485 273.877 176.485 276.559C176.485 279.242 174.377 281.35 171.694 281.35ZM171.694 290.932C169.011 290.932 166.903 288.824 166.903 286.141C166.903 283.458 169.011 281.35 171.694 281.35C174.377 281.35 176.485 283.458 176.485 286.141C176.485 288.824 174.377 290.932 171.694 290.932ZM152.531 290.932C149.848 290.932 147.74 288.824 147.74 286.141C147.74 283.458 149.848 281.35 152.531 281.35C155.213 281.35 157.321 283.458 157.321 286.141C157.321 288.824 155.213 290.932 152.531 290.932ZM114.204 290.932C111.521 290.932 109.413 288.824 109.413 286.141C109.413 283.458 111.521 281.35 114.204 281.35C116.887 281.35 118.995 283.458 118.995 286.141C118.995 288.824 116.887 290.932 114.204 290.932ZM104.622 290.932C101.94 290.932 99.8316 288.824 99.8316 286.141C99.8316 283.458 101.94 281.35 104.622 281.35C107.305 281.35 109.413 283.458 109.413 286.141C109.413 288.824 107.305 290.932 104.622 290.932ZM95.0408 290.932C92.358 290.932 90.25 288.824 90.25 286.141C90.25 283.458 92.358 281.35 95.0408 281.35C97.7237 281.35 99.8316 283.458 99.8316 286.141C99.8316 288.824 97.7237 290.932 95.0408 290.932ZM162.112 290.932C159.429 290.932 157.321 288.824 157.321 286.141C157.321 283.458 159.429 281.35 162.112 281.35C164.795 281.35 166.903 283.458 166.903 286.141C166.903 288.824 164.795 290.932 162.112 290.932ZM114.204 300.513C111.521 300.513 109.413 298.405 109.413 295.723C109.413 293.04 111.521 290.932 114.204 290.932C116.887 290.932 118.995 293.04 118.995 295.723C118.995 298.405 116.887 300.513 114.204 300.513ZM152.531 300.513C149.848 300.513 147.74 298.405 147.74 295.723C147.74 293.04 149.848 290.932 152.531 290.932C155.213 290.932 157.321 293.04 157.321 295.723C157.321 298.405 155.213 300.513 152.531 300.513ZM104.622 300.513C101.94 300.513 99.8316 298.405 99.8316 295.723C99.8316 293.04 101.94 290.932 104.622 290.932C107.305 290.932 109.413 293.04 109.413 295.723C109.413 298.405 107.305 300.513 104.622 300.513ZM162.112 300.513C159.429 300.513 157.321 298.405 157.321 295.723C157.321 293.04 159.429 290.932 162.112 290.932C164.795 290.932 166.903 293.04 166.903 295.723C166.903 298.405 164.795 300.513 162.112 300.513ZM142.949 310.095C140.266 310.095 138.158 307.987 138.158 305.304C138.158 302.621 140.266 300.513 142.949 300.513C145.632 300.513 147.74 302.621 147.74 305.304C147.74 307.987 145.632 310.095 142.949 310.095ZM123.786 310.095C121.103 310.095 118.995 307.987 118.995 305.304C118.995 302.621 121.103 300.513 123.786 300.513C126.469 300.513 128.577 302.621 128.577 305.304C128.577 307.987 126.469 310.095 123.786 310.095ZM114.204 310.095C111.521 310.095 109.413 307.987 109.413 305.304C109.413 302.621 111.521 300.513 114.204 300.513C116.887 300.513 118.995 302.621 118.995 305.304C118.995 307.987 116.887 310.095 114.204 310.095ZM152.531 310.095C149.848 310.095 147.74 307.987 147.74 305.304C147.74 302.621 149.848 300.513 152.531 300.513C155.213 300.513 157.321 302.621 157.321 305.304C157.321 307.987 155.213 310.095 152.531 310.095ZM104.622 310.095C101.94 310.095 99.8316 307.987 99.8316 305.304C99.8316 302.621 101.94 300.513 104.622 300.513C107.305 300.513 109.413 302.621 109.413 305.304C109.413 307.987 107.305 310.095 104.622 310.095ZM162.112 310.095C159.429 310.095 157.321 307.987 157.321 305.304C157.321 302.621 159.429 300.513 162.112 300.513C164.795 300.513 166.903 302.621 166.903 305.304C166.903 307.987 164.795 310.095 162.112 310.095ZM133.367 319.677C130.684 319.677 128.577 317.569 128.577 314.886C128.577 312.203 130.684 310.095 133.367 310.095C136.05 310.095 138.158 312.203 138.158 314.886C138.158 317.569 136.05 319.677 133.367 319.677ZM123.786 319.677C121.103 319.677 118.995 317.569 118.995 314.886C118.995 312.203 121.103 310.095 123.786 310.095C126.469 310.095 128.577 312.203 128.577 314.886C128.577 317.569 126.469 319.677 123.786 319.677ZM142.949 319.677C140.266 319.677 138.158 317.569 138.158 314.886C138.158 312.203 140.266 310.095 142.949 310.095C145.632 310.095 147.74 312.203 147.74 314.886C147.74 317.569 145.632 319.677 142.949 319.677ZM152.531 319.677C149.848 319.677 147.74 317.569 147.74 314.886C147.74 312.203 149.848 310.095 152.531 310.095C155.213 310.095 157.321 312.203 157.321 314.886C157.321 317.569 155.213 319.677 152.531 319.677ZM114.204 319.677C111.521 319.677 109.413 317.569 109.413 314.886C109.413 312.203 111.521 310.095 114.204 310.095C116.887 310.095 118.995 312.203 118.995 314.886C118.995 317.569 116.887 319.677 114.204 319.677ZM133.367 329.258C130.684 329.258 128.577 327.15 128.577 324.468C128.577 321.785 130.684 319.677 133.367 319.677C136.05 319.677 138.158 321.785 138.158 324.468C138.158 327.15 136.05 329.258 133.367 329.258ZM152.531 329.258C149.848 329.258 147.74 327.15 147.74 324.468C147.74 321.785 149.848 319.677 152.531 319.677C155.213 319.677 157.321 321.785 157.321 324.468C157.321 327.15 155.213 329.258 152.531 329.258ZM114.204 329.258C111.521 329.258 109.413 327.15 109.413 324.468C109.413 321.785 111.521 319.677 114.204 319.677C116.887 319.677 118.995 321.785 118.995 324.468C118.995 327.15 116.887 329.258 114.204 329.258ZM142.949 329.258C140.266 329.258 138.158 327.15 138.158 324.468C138.158 321.785 140.266 319.677 142.949 319.677C145.632 319.677 147.74 321.785 147.74 324.468C147.74 327.15 145.632 329.258 142.949 329.258ZM123.786 329.258C121.103 329.258 118.995 327.15 118.995 324.468C118.995 321.785 121.103 319.677 123.786 319.677C126.469 319.677 128.577 321.785 128.577 324.468C128.577 327.15 126.469 329.258 123.786 329.258ZM162.112 338.84C159.429 338.84 157.321 336.732 157.321 334.049C157.321 331.366 159.429 329.258 162.112 329.258C164.795 329.258 166.903 331.366 166.903 334.049C166.903 336.732 164.795 338.84 162.112 338.84ZM104.622 338.84C101.94 338.84 99.8316 336.732 99.8316 334.049C99.8316 331.366 101.94 329.258 104.622 329.258C107.305 329.258 109.413 331.366 109.413 334.049C109.413 336.732 107.305 338.84 104.622 338.84ZM152.531 338.84C149.848 338.84 147.74 336.732 147.74 334.049C147.74 331.366 149.848 329.258 152.531 329.258C155.213 329.258 157.321 331.366 157.321 334.049C157.321 336.732 155.213 338.84 152.531 338.84ZM114.204 338.84C111.521 338.84 109.413 336.732 109.413 334.049C109.413 331.366 111.521 329.258 114.204 329.258C116.887 329.258 118.995 331.366 118.995 334.049C118.995 336.732 116.887 338.84 114.204 338.84ZM123.786 338.84C121.103 338.84 118.995 336.732 118.995 334.049C118.995 331.366 121.103 329.258 123.786 329.258C126.469 329.258 128.577 331.366 128.577 334.049C128.577 336.732 126.469 338.84 123.786 338.84ZM142.949 338.84C140.266 338.84 138.158 336.732 138.158 334.049C138.158 331.366 140.266 329.258 142.949 329.258C145.632 329.258 147.74 331.366 147.74 334.049C147.74 336.732 145.632 338.84 142.949 338.84ZM162.112 348.422C159.429 348.422 157.321 346.314 157.321 343.631C157.321 340.948 159.429 338.84 162.112 338.84C164.795 338.84 166.903 340.948 166.903 343.631C166.903 346.314 164.795 348.422 162.112 348.422ZM104.622 348.422C101.94 348.422 99.8316 346.314 99.8316 343.631C99.8316 340.948 101.94 338.84 104.622 338.84C107.305 338.84 109.413 340.948 109.413 343.631C109.413 346.314 107.305 348.422 104.622 348.422ZM152.531 348.422C149.848 348.422 147.74 346.314 147.74 343.631C147.74 340.948 149.848 338.84 152.531 338.84C155.213 338.84 157.321 340.948 157.321 343.631C157.321 346.314 155.213 348.422 152.531 348.422ZM114.204 348.422C111.521 348.422 109.413 346.314 109.413 343.631C109.413 340.948 111.521 338.84 114.204 338.84C116.887 338.84 118.995 340.948 118.995 343.631C118.995 346.314 116.887 348.422 114.204 348.422ZM171.694 358.003C169.011 358.003 166.903 355.895 166.903 353.212C166.903 350.53 169.011 348.422 171.694 348.422C174.377 348.422 176.485 350.53 176.485 353.212C176.485 355.895 174.377 358.003 171.694 358.003ZM95.0408 358.003C92.358 358.003 90.25 355.895 90.25 353.212C90.25 350.53 92.358 348.422 95.0408 348.422C97.7237 348.422 99.8316 350.53 99.8316 353.212C99.8316 355.895 97.7237 358.003 95.0408 358.003ZM162.112 358.003C159.429 358.003 157.321 355.895 157.321 353.212C157.321 350.53 159.429 348.422 162.112 348.422C164.795 348.422 166.903 350.53 166.903 353.212C166.903 355.895 164.795 358.003 162.112 358.003ZM114.204 358.003C111.521 358.003 109.413 355.895 109.413 353.212C109.413 350.53 111.521 348.422 114.204 348.422C116.887 348.422 118.995 350.53 118.995 353.212C118.995 355.895 116.887 358.003 114.204 358.003ZM152.531 358.003C149.848 358.003 147.74 355.895 147.74 353.212C147.74 350.53 149.848 348.422 152.531 348.422C155.213 348.422 157.321 350.53 157.321 353.212C157.321 355.895 155.213 358.003 152.531 358.003ZM104.622 358.003C101.94 358.003 99.8316 355.895 99.8316 353.212C99.8316 350.53 101.94 348.422 104.622 348.422C107.305 348.422 109.413 350.53 109.413 353.212C109.413 355.895 107.305 358.003 104.622 358.003ZM171.694 367.585C169.011 367.585 166.903 365.477 166.903 362.794C166.903 360.111 169.011 358.003 171.694 358.003C174.377 358.003 176.485 360.111 176.485 362.794C176.485 365.477 174.377 367.585 171.694 367.585ZM95.0408 367.585C92.358 367.585 90.25 365.477 90.25 362.794C90.25 360.111 92.358 358.003 95.0408 358.003C97.7237 358.003 99.8316 360.111 99.8316 362.794C99.8316 365.477 97.7237 367.585 95.0408 367.585ZM162.112 367.585C159.429 367.585 157.321 365.477 157.321 362.794C157.321 360.111 159.429 358.003 162.112 358.003C164.795 358.003 166.903 360.111 166.903 362.794C166.903 365.477 164.795 367.585 162.112 367.585ZM104.622 367.585C101.94 367.585 99.8316 365.477 99.8316 362.794C99.8316 360.111 101.94 358.003 104.622 358.003C107.305 358.003 109.413 360.111 109.413 362.794C109.413 365.477 107.305 367.585 104.622 367.585Z" fill="#0C0C0C"/>
<path d="M435.721 214.279H637.291V415.855H435.721V214.279Z" fill="white"/>
<mask id="mask8_39_133" style="mask-type:luminance" maskUnits="userSpaceOnUse" x="435" y="214" width="203" height="202">
<path d="M435.721 214.279H637.291V415.855H435.721V214.279Z" fill="white"/>
</mask>
<g mask="url(#mask8_39_133)">
<path d="M637.291 214.279H641.55V210.021H637.291V214.279ZM435.721 218.538H637.291V210.021H435.721V218.538ZM633.033 214.279V415.855H641.55V214.279H633.033Z" fill="#0C0C0C"/>
</g>
<path d="M528.344 281.35C525.661 281.35 523.553 279.242 523.553 276.559C523.553 273.877 525.661 271.769 528.344 271.769C531.026 271.769 533.134 273.877 533.134 276.559C533.134 279.242 531.026 281.35 528.344 281.35ZM547.507 281.35C544.824 281.35 542.716 279.242 542.716 276.559C542.716 273.877 544.824 271.769 547.507 271.769C550.19 271.769 552.298 273.877 552.298 276.559C552.298 279.242 550.19 281.35 547.507 281.35ZM537.925 281.35C535.242 281.35 533.134 279.242 533.134 276.559C533.134 273.877 535.242 271.769 537.925 271.769C540.608 271.769 542.716 273.877 542.716 276.559C542.716 279.242 540.608 281.35 537.925 281.35ZM557.088 281.35C554.406 281.35 552.298 279.242 552.298 276.559C552.298 273.877 554.406 271.769 557.088 271.769C559.771 271.769 561.879 273.877 561.879 276.559C561.879 279.242 559.771 281.35 557.088 281.35ZM518.762 281.35C516.079 281.35 513.971 279.242 513.971 276.559C513.971 273.877 516.079 271.769 518.762 271.769C521.445 271.769 523.553 273.877 523.553 276.559C523.553 279.242 521.445 281.35 518.762 281.35ZM528.344 290.932C525.661 290.932 523.553 288.824 523.553 286.141C523.553 283.458 525.661 281.35 528.344 281.35C531.026 281.35 533.134 283.458 533.134 286.141C533.134 288.824 531.026 290.932 528.344 290.932ZM509.18 290.932C506.497 290.932 504.389 288.824 504.389 286.141C504.389 283.458 506.497 281.35 509.18 281.35C511.863 281.35 513.971 283.458 513.971 286.141C513.971 288.824 511.863 290.932 509.18 290.932ZM537.925 290.932C535.242 290.932 533.134 288.824 533.134 286.141C533.134 283.458 535.242 281.35 537.925 281.35C540.608 281.35 542.716 283.458 542.716 286.141C542.716 288.824 540.608 290.932 537.925 290.932ZM557.088 290.932C554.406 290.932 552.298 288.824 552.298 286.141C552.298 283.458 554.406 281.35 557.088 281.35C559.771 281.35 561.879 283.458 561.879 286.141C561.879 288.824 559.771 290.932 557.088 290.932ZM547.507 290.932C544.824 290.932 542.716 288.824 542.716 286.141C542.716 283.458 544.824 281.35 547.507 281.35C550.19 281.35 552.298 283.458 552.298 286.141C552.298 288.824 550.19 290.932 547.507 290.932ZM518.762 290.932C516.079 290.932 513.971 288.824 513.971 286.141C513.971 283.458 516.079 281.35 518.762 281.35C521.445 281.35 523.553 283.458 523.553 286.141C523.553 288.824 521.445 290.932 518.762 290.932ZM566.67 290.932C563.987 290.932 561.879 288.824 561.879 286.141C561.879 283.458 563.987 281.35 566.67 281.35C569.353 281.35 571.461 283.458 571.461 286.141C571.461 288.824 569.353 290.932 566.67 290.932ZM518.762 300.513C516.079 300.513 513.971 298.405 513.971 295.723C513.971 293.04 516.079 290.932 518.762 290.932C521.445 290.932 523.553 293.04 523.553 295.723C523.553 298.405 521.445 300.513 518.762 300.513ZM557.088 300.513C554.406 300.513 552.298 298.405 552.298 295.723C552.298 293.04 554.406 290.932 557.088 290.932C559.771 290.932 561.879 293.04 561.879 295.723C561.879 298.405 559.771 300.513 557.088 300.513ZM509.18 300.513C506.497 300.513 504.389 298.405 504.389 295.723C504.389 293.04 506.497 290.932 509.18 290.932C511.863 290.932 513.971 293.04 513.971 295.723C513.971 298.405 511.863 300.513 509.18 300.513ZM566.67 300.513C563.987 300.513 561.879 298.405 561.879 295.723C561.879 293.04 563.987 290.932 566.67 290.932C569.353 290.932 571.461 293.04 571.461 295.723C571.461 298.405 569.353 300.513 566.67 300.513ZM576.252 300.513C573.569 300.513 571.461 298.405 571.461 295.723C571.461 293.04 573.569 290.932 576.252 290.932C578.935 290.932 581.043 293.04 581.043 295.723C581.043 298.405 578.935 300.513 576.252 300.513ZM499.599 300.513C496.916 300.513 494.808 298.405 494.808 295.723C494.808 293.04 496.916 290.932 499.599 290.932C502.282 290.932 504.389 293.04 504.389 295.723C504.389 298.405 502.282 300.513 499.599 300.513ZM509.18 310.095C506.497 310.095 504.389 307.987 504.389 305.304C504.389 302.621 506.497 300.513 509.18 300.513C511.863 300.513 513.971 302.621 513.971 305.304C513.971 307.987 511.863 310.095 509.18 310.095ZM499.599 310.095C496.916 310.095 494.808 307.987 494.808 305.304C494.808 302.621 496.916 300.513 499.599 300.513C502.282 300.513 504.389 302.621 504.389 305.304C504.389 307.987 502.282 310.095 499.599 310.095ZM566.67 310.095C563.987 310.095 561.879 307.987 561.879 305.304C561.879 302.621 563.987 300.513 566.67 300.513C569.353 300.513 571.461 302.621 571.461 305.304C571.461 307.987 569.353 310.095 566.67 310.095ZM576.252 310.095C573.569 310.095 571.461 307.987 571.461 305.304C571.461 302.621 573.569 300.513 576.252 300.513C578.935 300.513 581.043 302.621 581.043 305.304C581.043 307.987 578.935 310.095 576.252 310.095ZM499.599 319.677C496.916 319.677 494.808 317.569 494.808 314.886C494.808 312.203 496.916 310.095 499.599 310.095C502.282 310.095 504.389 312.203 504.389 314.886C504.389 317.569 502.282 319.677 499.599 319.677ZM509.18 319.677C506.497 319.677 504.389 317.569 504.389 314.886C504.389 312.203 506.497 310.095 509.18 310.095C511.863 310.095 513.971 312.203 513.971 314.886C513.971 317.569 511.863 319.677 509.18 319.677ZM576.252 319.677C573.569 319.677 571.461 317.569 571.461 314.886C571.461 312.203 573.569 310.095 576.252 310.095C578.935 310.095 581.043 312.203 581.043 314.886C581.043 317.569 578.935 319.677 576.252 319.677ZM566.67 319.677C563.987 319.677 561.879 317.569 561.879 314.886C561.879 312.203 563.987 310.095 566.67 310.095C569.353 310.095 571.461 312.203 571.461 314.886C571.461 317.569 569.353 319.677 566.67 319.677ZM566.67 329.258C563.987 329.258 561.879 327.15 561.879 324.468C561.879 321.785 563.987 319.677 566.67 319.677C569.353 319.677 571.461 321.785 571.461 324.468C571.461 327.15 569.353 329.258 566.67 329.258ZM499.599 329.258C496.916 329.258 494.808 327.15 494.808 324.468C494.808 321.785 496.916 319.677 499.599 319.677C502.282 319.677 504.389 321.785 504.389 324.468C504.389 327.15 502.282 329.258 499.599 329.258ZM576.252 329.258C573.569 329.258 571.461 327.15 571.461 324.468C571.461 321.785 573.569 319.677 576.252 319.677C578.935 319.677 581.043 321.785 581.043 324.468C581.043 327.15 578.935 329.258 576.252 329.258ZM509.18 329.258C506.497 329.258 504.389 327.15 504.389 324.468C504.389 321.785 506.497 319.677 509.18 319.677C511.863 319.677 513.971 321.785 513.971 324.468C513.971 327.15 511.863 329.258 509.18 329.258ZM566.67 338.84C563.987 338.84 561.879 336.732 561.879 334.049C561.879 331.366 563.987 329.258 566.67 329.258C569.353 329.258 571.461 331.366 571.461 334.049C571.461 336.732 569.353 338.84 566.67 338.84ZM509.18 338.84C506.497 338.84 504.389 336.732 504.389 334.049C504.389 331.366 506.497 329.258 509.18 329.258C511.863 329.258 513.971 331.366 513.971 334.049C513.971 336.732 511.863 338.84 509.18 338.84ZM499.599 338.84C496.916 338.84 494.808 336.732 494.808 334.049C494.808 331.366 496.916 329.258 499.599 329.258C502.282 329.258 504.389 331.366 504.389 334.049C504.389 336.732 502.282 338.84 499.599 338.84ZM576.252 338.84C573.569 338.84 571.461 336.732 571.461 334.049C571.461 331.366 573.569 329.258 576.252 329.258C578.935 329.258 581.043 331.366 581.043 334.049C581.043 336.732 578.935 338.84 576.252 338.84ZM518.762 348.422C516.079 348.422 513.971 346.314 513.971 343.631C513.971 340.948 516.079 338.84 518.762 338.84C521.445 338.84 523.553 340.948 523.553 343.631C523.553 346.314 521.445 348.422 518.762 348.422ZM557.088 348.422C554.406 348.422 552.298 346.314 552.298 343.631C552.298 340.948 554.406 338.84 557.088 338.84C559.771 338.84 561.879 340.948 561.879 343.631C561.879 346.314 559.771 348.422 557.088 348.422ZM566.67 348.422C563.987 348.422 561.879 346.314 561.879 343.631C561.879 340.948 563.987 338.84 566.67 338.84C569.353 338.84 571.461 340.948 571.461 343.631C571.461 346.314 569.353 348.422 566.67 348.422ZM576.252 348.422C573.569 348.422 571.461 346.314 571.461 343.631C571.461 340.948 573.569 338.84 576.252 338.84C578.935 338.84 581.043 340.948 581.043 343.631C581.043 346.314 578.935 348.422 576.252 348.422ZM499.599 348.422C496.916 348.422 494.808 346.314 494.808 343.631C494.808 340.948 496.916 338.84 499.599 338.84C502.282 338.84 504.389 340.948 504.389 343.631C504.389 346.314 502.282 348.422 499.599 348.422ZM509.18 348.422C506.497 348.422 504.389 346.314 504.389 343.631C504.389 340.948 506.497 338.84 509.18 338.84C511.863 338.84 513.971 340.948 513.971 343.631C513.971 346.314 511.863 348.422 509.18 348.422ZM509.18 358.003C506.497 358.003 504.389 355.895 504.389 353.212C504.389 350.53 506.497 348.422 509.18 348.422C511.863 348.422 513.971 350.53 513.971 353.212C513.971 355.895 511.863 358.003 509.18 358.003ZM566.67 358.003C563.987 358.003 561.879 355.895 561.879 353.212C561.879 350.53 563.987 348.422 566.67 348.422C569.353 348.422 571.461 350.53 571.461 353.212C571.461 355.895 569.353 358.003 566.67 358.003ZM557.088 358.003C554.406 358.003 552.298 355.895 552.298 353.212C552.298 350.53 554.406 348.422 557.088 348.422C559.771 348.422 561.879 350.53 561.879 353.212C561.879 355.895 559.771 358.003 557.088 358.003ZM547.507 358.003C544.824 358.003 542.716 355.895 542.716 353.212C542.716 350.53 544.824 348.422 547.507 348.422C550.19 348.422 552.298 350.53 552.298 353.212C552.298 355.895 550.19 358.003 547.507 358.003ZM528.344 358.003C525.661 358.003 523.553 355.895 523.553 353.212C523.553 350.53 525.661 348.422 528.344 348.422C531.026 348.422 533.134 350.53 533.134 353.212C533.134 355.895 531.026 358.003 528.344 358.003ZM518.762 358.003C516.079 358.003 513.971 355.895 513.971 353.212C513.971 350.53 516.079 348.422 518.762 348.422C521.445 348.422 523.553 350.53 523.553 353.212C523.553 355.895 521.445 358.003 518.762 358.003ZM537.925 358.003C535.242 358.003 533.134 355.895 533.134 353.212C533.134 350.53 535.242 348.422 537.925 348.422C540.608 348.422 542.716 350.53 542.716 353.212C542.716 355.895 540.608 358.003 537.925 358.003ZM557.088 367.585C554.406 367.585 552.298 365.477 552.298 362.794C552.298 360.111 554.406 358.003 557.088 358.003C559.771 358.003 561.879 360.111 561.879 362.794C561.879 365.477 559.771 367.585 557.088 367.585ZM547.507 367.585C544.824 367.585 542.716 365.477 542.716 362.794C542.716 360.111 544.824 358.003 547.507 358.003C550.19 358.003 552.298 360.111 552.298 362.794C552.298 365.477 550.19 367.585 547.507 367.585ZM528.344 367.585C525.661 367.585 523.553 365.477 523.553 362.794C523.553 360.111 525.661 358.003 528.344 358.003C531.026 358.003 533.134 360.111 533.134 362.794C533.134 365.477 531.026 367.585 528.344 367.585ZM518.762 367.585C516.079 367.585 513.971 365.477 513.971 362.794C513.971 360.111 516.079 358.003 518.762 358.003C521.445 358.003 523.553 360.111 523.553 362.794C523.553 365.477 521.445 367.585 518.762 367.585ZM537.925 367.585C535.242 367.585 533.134 365.477 533.134 362.794C533.134 360.111 535.242 358.003 537.925 358.003C540.608 358.003 542.716 360.111 542.716 362.794C542.716 365.477 540.608 367.585 537.925 367.585Z" fill="#D65A31"/>
<path d="M235.572 414.429H437.141V616.005H235.572V414.429Z" fill="white"/>
<mask id="mask9_39_133" style="mask-type:luminance" maskUnits="userSpaceOnUse" x="235" y="414" width="203" height="203">
<path d="M235.572 414.429H437.141V616.005H235.572V414.429Z" fill="white"/>
</mask>
<g mask="url(#mask9_39_133)">
<path d="M437.141 414.429H441.4V410.17H437.141V414.429ZM235.572 418.687H437.141V410.17H235.572V418.687ZM432.883 414.429V616.005H441.4V414.429H432.883Z" fill="#0C0C0C"/>
</g>
<path d="M326.065 481.5C323.382 481.5 321.274 479.392 321.274 476.709C321.274 474.026 323.382 471.918 326.065 471.918C328.747 471.918 330.855 474.026 330.855 476.709C330.855 479.392 328.747 481.5 326.065 481.5ZM345.228 481.5C342.545 481.5 340.437 479.392 340.437 476.709C340.437 474.026 342.545 471.918 345.228 471.918C347.911 471.918 350.019 474.026 350.019 476.709C350.019 479.392 347.911 481.5 345.228 481.5ZM335.646 481.5C332.963 481.5 330.855 479.392 330.855 476.709C330.855 474.026 332.963 471.918 335.646 471.918C338.329 471.918 340.437 474.026 340.437 476.709C340.437 479.392 338.329 481.5 335.646 481.5ZM354.809 481.5C352.127 481.5 350.019 479.392 350.019 476.709C350.019 474.026 352.127 471.918 354.809 471.918C357.492 471.918 359.6 474.026 359.6 476.709C359.6 479.392 357.492 481.5 354.809 481.5ZM316.483 481.5C313.8 481.5 311.692 479.392 311.692 476.709C311.692 474.026 313.8 471.918 316.483 471.918C319.166 471.918 321.274 474.026 321.274 476.709C321.274 479.392 319.166 481.5 316.483 481.5ZM326.065 491.082C323.382 491.082 321.274 488.974 321.274 486.291C321.274 483.608 323.382 481.5 326.065 481.5C328.747 481.5 330.855 483.608 330.855 486.291C330.855 488.974 328.747 491.082 326.065 491.082ZM306.901 491.082C304.218 491.082 302.11 488.974 302.11 486.291C302.11 483.608 304.218 481.5 306.901 481.5C309.584 481.5 311.692 483.608 311.692 486.291C311.692 488.974 309.584 491.082 306.901 491.082ZM335.646 491.082C332.963 491.082 330.855 488.974 330.855 486.291C330.855 483.608 332.963 481.5 335.646 481.5C338.329 481.5 340.437 483.608 340.437 486.291C340.437 488.974 338.329 491.082 335.646 491.082ZM354.809 491.082C352.127 491.082 350.019 488.974 350.019 486.291C350.019 483.608 352.127 481.5 354.809 481.5C357.492 481.5 359.6 483.608 359.6 486.291C359.6 488.974 357.492 491.082 354.809 491.082ZM345.228 491.082C342.545 491.082 340.437 488.974 340.437 486.291C340.437 483.608 342.545 481.5 345.228 481.5C347.911 481.5 350.019 483.608 350.019 486.291C350.019 488.974 347.911 491.082 345.228 491.082ZM316.483 491.082C313.8 491.082 311.692 488.974 311.692 486.291C311.692 483.608 313.8 481.5 316.483 481.5C319.166 481.5 321.274 483.608 321.274 486.291C321.274 488.974 319.166 491.082 316.483 491.082ZM364.391 491.082C361.708 491.082 359.6 488.974 359.6 486.291C359.6 483.608 361.708 481.5 364.391 481.5C367.074 481.5 369.182 483.608 369.182 486.291C369.182 488.974 367.074 491.082 364.391 491.082ZM316.483 500.663C313.8 500.663 311.692 498.555 311.692 495.873C311.692 493.19 313.8 491.082 316.483 491.082C319.166 491.082 321.274 493.19 321.274 495.873C321.274 498.555 319.166 500.663 316.483 500.663ZM354.809 500.663C352.127 500.663 350.019 498.555 350.019 495.873C350.019 493.19 352.127 491.082 354.809 491.082C357.492 491.082 359.6 493.19 359.6 495.873C359.6 498.555 357.492 500.663 354.809 500.663ZM306.901 500.663C304.218 500.663 302.11 498.555 302.11 495.873C302.11 493.19 304.218 491.082 306.901 491.082C309.584 491.082 311.692 493.19 311.692 495.873C311.692 498.555 309.584 500.663 306.901 500.663ZM364.391 500.663C361.708 500.663 359.6 498.555 359.6 495.873C359.6 493.19 361.708 491.082 364.391 491.082C367.074 491.082 369.182 493.19 369.182 495.873C369.182 498.555 367.074 500.663 364.391 500.663ZM373.973 500.663C371.29 500.663 369.182 498.555 369.182 495.873C369.182 493.19 371.29 491.082 373.973 491.082C376.656 491.082 378.764 493.19 378.764 495.873C378.764 498.555 376.656 500.663 373.973 500.663ZM297.32 500.663C294.637 500.663 292.529 498.555 292.529 495.873C292.529 493.19 294.637 491.082 297.32 491.082C300.002 491.082 302.11 493.19 302.11 495.873C302.11 498.555 300.002 500.663 297.32 500.663ZM306.901 510.245C304.218 510.245 302.11 508.137 302.11 505.454C302.11 502.771 304.218 500.663 306.901 500.663C309.584 500.663 311.692 502.771 311.692 505.454C311.692 508.137 309.584 510.245 306.901 510.245ZM297.32 510.245C294.637 510.245 292.529 508.137 292.529 505.454C292.529 502.771 294.637 500.663 297.32 500.663C300.002 500.663 302.11 502.771 302.11 505.454C302.11 508.137 300.002 510.245 297.32 510.245ZM364.391 510.245C361.708 510.245 359.6 508.137 359.6 505.454C359.6 502.771 361.708 500.663 364.391 500.663C367.074 500.663 369.182 502.771 369.182 505.454C369.182 508.137 367.074 510.245 364.391 510.245ZM373.973 510.245C371.29 510.245 369.182 508.137 369.182 505.454C369.182 502.771 371.29 500.663 373.973 500.663C376.656 500.663 378.764 502.771 378.764 505.454C378.764 508.137 376.656 510.245 373.973 510.245ZM297.32 519.827C294.637 519.827 292.529 517.719 292.529 515.036C292.529 512.353 294.637 510.245 297.32 510.245C300.002 510.245 302.11 512.353 302.11 515.036C302.11 517.719 300.002 519.827 297.32 519.827ZM306.901 519.827C304.218 519.827 302.11 517.719 302.11 515.036C302.11 512.353 304.218 510.245 306.901 510.245C309.584 510.245 311.692 512.353 311.692 515.036C311.692 517.719 309.584 519.827 306.901 519.827ZM373.973 519.827C371.29 519.827 369.182 517.719 369.182 515.036C369.182 512.353 371.29 510.245 373.973 510.245C376.656 510.245 378.764 512.353 378.764 515.036C378.764 517.719 376.656 519.827 373.973 519.827ZM364.391 519.827C361.708 519.827 359.6 517.719 359.6 515.036C359.6 512.353 361.708 510.245 364.391 510.245C367.074 510.245 369.182 512.353 369.182 515.036C369.182 517.719 367.074 519.827 364.391 519.827ZM364.391 529.408C361.708 529.408 359.6 527.3 359.6 524.617C359.6 521.935 361.708 519.827 364.391 519.827C367.074 519.827 369.182 521.935 369.182 524.617C369.182 527.3 367.074 529.408 364.391 529.408ZM297.32 529.408C294.637 529.408 292.529 527.3 292.529 524.617C292.529 521.935 294.637 519.827 297.32 519.827C300.002 519.827 302.11 521.935 302.11 524.617C302.11 527.3 300.002 529.408 297.32 529.408ZM373.973 529.408C371.29 529.408 369.182 527.3 369.182 524.617C369.182 521.935 371.29 519.827 373.973 519.827C376.656 519.827 378.764 521.935 378.764 524.617C378.764 527.3 376.656 529.408 373.973 529.408ZM306.901 529.408C304.218 529.408 302.11 527.3 302.11 524.617C302.11 521.935 304.218 519.827 306.901 519.827C309.584 519.827 311.692 521.935 311.692 524.617C311.692 527.3 309.584 529.408 306.901 529.408ZM364.391 538.99C361.708 538.99 359.6 536.882 359.6 534.199C359.6 531.516 361.708 529.408 364.391 529.408C367.074 529.408 369.182 531.516 369.182 534.199C369.182 536.882 367.074 538.99 364.391 538.99ZM306.901 538.99C304.218 538.99 302.11 536.882 302.11 534.199C302.11 531.516 304.218 529.408 306.901 529.408C309.584 529.408 311.692 531.516 311.692 534.199C311.692 536.882 309.584 538.99 306.901 538.99ZM297.32 538.99C294.637 538.99 292.529 536.882 292.529 534.199C292.529 531.516 294.637 529.408 297.32 529.408C300.002 529.408 302.11 531.516 302.11 534.199C302.11 536.882 300.002 538.99 297.32 538.99ZM373.973 538.99C371.29 538.99 369.182 536.882 369.182 534.199C369.182 531.516 371.29 529.408 373.973 529.408C376.656 529.408 378.764 531.516 378.764 534.199C378.764 536.882 376.656 538.99 373.973 538.99ZM316.483 548.572C313.8 548.572 311.692 546.464 311.692 543.781C311.692 541.098 313.8 538.99 316.483 538.99C319.166 538.99 321.274 541.098 321.274 543.781C321.274 546.464 319.166 548.572 316.483 548.572ZM354.809 548.572C352.127 548.572 350.019 546.464 350.019 543.781C350.019 541.098 352.127 538.99 354.809 538.99C357.492 538.99 359.6 541.098 359.6 543.781C359.6 546.464 357.492 548.572 354.809 548.572ZM364.391 548.572C361.708 548.572 359.6 546.464 359.6 543.781C359.6 541.098 361.708 538.99 364.391 538.99C367.074 538.99 369.182 541.098 369.182 543.781C369.182 546.464 367.074 548.572 364.391 548.572ZM373.973 548.572C371.29 548.572 369.182 546.464 369.182 543.781C369.182 541.098 371.29 538.99 373.973 538.99C376.656 538.99 378.764 541.098 378.764 543.781C378.764 546.464 376.656 548.572 373.973 548.572ZM297.32 548.572C294.637 548.572 292.529 546.464 292.529 543.781C292.529 541.098 294.637 538.99 297.32 538.99C300.002 538.99 302.11 541.098 302.11 543.781C302.11 546.464 300.002 548.572 297.32 548.572ZM306.901 548.572C304.218 548.572 302.11 546.464 302.11 543.781C302.11 541.098 304.218 538.99 306.901 538.99C309.584 538.99 311.692 541.098 311.692 543.781C311.692 546.464 309.584 548.572 306.901 548.572ZM306.901 558.153C304.218 558.153 302.11 556.045 302.11 553.362C302.11 550.679 304.218 548.572 306.901 548.572C309.584 548.572 311.692 550.679 311.692 553.362C311.692 556.045 309.584 558.153 306.901 558.153ZM364.391 558.153C361.708 558.153 359.6 556.045 359.6 553.362C359.6 550.679 361.708 548.572 364.391 548.572C367.074 548.572 369.182 550.679 369.182 553.362C369.182 556.045 367.074 558.153 364.391 558.153ZM354.809 558.153C352.127 558.153 350.019 556.045 350.019 553.362C350.019 550.679 352.127 548.572 354.809 548.572C357.492 548.572 359.6 550.679 359.6 553.362C359.6 556.045 357.492 558.153 354.809 558.153ZM345.228 558.153C342.545 558.153 340.437 556.045 340.437 553.362C340.437 550.679 342.545 548.572 345.228 548.572C347.911 548.572 350.019 550.679 350.019 553.362C350.019 556.045 347.911 558.153 345.228 558.153ZM326.065 558.153C323.382 558.153 321.274 556.045 321.274 553.362C321.274 550.679 323.382 548.572 326.065 548.572C328.747 548.572 330.855 550.679 330.855 553.362C330.855 556.045 328.747 558.153 326.065 558.153ZM316.483 558.153C313.8 558.153 311.692 556.045 311.692 553.362C311.692 550.679 313.8 548.572 316.483 548.572C319.166 548.572 321.274 550.679 321.274 553.362C321.274 556.045 319.166 558.153 316.483 558.153ZM335.646 558.153C332.963 558.153 330.855 556.045 330.855 553.362C330.855 550.679 332.963 548.572 335.646 548.572C338.329 548.572 340.437 550.679 340.437 553.362C340.437 556.045 338.329 558.153 335.646 558.153ZM354.809 567.735C352.127 567.735 350.019 565.627 350.019 562.944C350.019 560.261 352.127 558.153 354.809 558.153C357.492 558.153 359.6 560.261 359.6 562.944C359.6 565.627 357.492 567.735 354.809 567.735ZM345.228 567.735C342.545 567.735 340.437 565.627 340.437 562.944C340.437 560.261 342.545 558.153 345.228 558.153C347.911 558.153 350.019 560.261 350.019 562.944C350.019 565.627 347.911 567.735 345.228 567.735ZM326.065 567.735C323.382 567.735 321.274 565.627 321.274 562.944C321.274 560.261 323.382 558.153 326.065 558.153C328.747 558.153 330.855 560.261 330.855 562.944C330.855 565.627 328.747 567.735 326.065 567.735ZM316.483 567.735C313.8 567.735 311.692 565.627 311.692 562.944C311.692 560.261 313.8 558.153 316.483 558.153C319.166 558.153 321.274 560.261 321.274 562.944C321.274 565.627 319.166 567.735 316.483 567.735ZM335.646 567.735C332.963 567.735 330.855 565.627 330.855 562.944C330.855 560.261 332.963 558.153 335.646 558.153C338.329 558.153 340.437 560.261 340.437 562.944C340.437 565.627 338.329 567.735 335.646 567.735Z" fill="#D65A31"/>
</g>
<defs>
<clipPath id="clip0_39_133">
<rect width="626" height="626" fill="white" transform="translate(12 12)"/>
</clipPath>
</defs>
</svg>
